<svg xmlns="http://www.w3.org/2000/svg" viewBox="0 0 800 600" width="100%" height="100%">
  <defs>
    <linearGradient id="careBg" x1="0" y1="0" x2="0" y2="1">
      <stop offset="0%" stop-color="#f0fdf4"/>
      <stop offset="100%" stop-color="#bbf7d0"/>
    </linearGradient>
  </defs>
  <rect width="800" height="600" fill="url(#careBg)"/>
  
  <!-- Fresh Cut Lawn -->
  <rect x="0" y="440" width="800" height="160" fill="#16a34a"/>
  <!-- Alternating Lawn Stripes -->
  <rect x="100" y="440" width="100" height="160" fill="#15803d"/>
  <rect x="300" y="440" width="100" height="160" fill="#15803d"/>
  <rect x="500" y="440" width="100" height="160" fill="#15803d"/>
  <rect x="700" y="440" width="100" height="160" fill="#15803d"/>

  <!-- Gardening Tools (Shears & Watering Can) -->
  <!-- Watering Can -->
  <g transform="translate(480, 260)">
    <rect x="0" y="40" width="140" height="120" rx="16" fill="#0284c7"/>
    <!-- Handle -->
    <path d="M-20,50 Q-60,100 0,140" stroke="#0284c7" stroke-width="14" fill="none"/>
    <!-- Spout -->
    <path d="M130,120 L220,50" stroke="#0284c7" stroke-width="16" fill="none"/>
    <ellipse cx="230" cy="45" rx="15" ry="25" fill="#38bdf8"/>
    <!-- Water Drops -->
    <g fill="#38bdf8" opacity="0.8">
      <circle cx="260" cy="70" r="6"/>
      <circle cx="280" cy="100" r="5"/>
      <circle cx="270" cy="130" r="7"/>
      <circle cx="295" cy="150" r="6"/>
      <circle cx="285" cy="180" r="8"/>
    </g>
  </g>

  <!-- Potted Healthy Plant being pruned -->
  <g transform="translate(240, 220)">
    <ellipse cx="80" cy="220" rx="70" ry="25" fill="#b45309"/>
    <polygon points="20,220 40,320 120,320 140,220" fill="#d97706"/>
    <!-- Leaves -->
    <ellipse cx="80" cy="160" rx="55" ry="30" fill="#15803d"/>
    <ellipse cx="50" cy="120" rx="45" ry="25" fill="#22c55e"/>
    <ellipse cx="110" cy="110" rx="45" ry="25" fill="#16a34a"/>
    <ellipse cx="80" cy="70" rx="35" ry="20" fill="#4ade80"/>
  </g>

  <rect x="30" y="30" width="220" height="40" rx="20" fill="#1b4332"/>
  <text x="140" y="55" fill="#ffffff" font-family="'Plus Jakarta Sans', sans-serif" font-weight="700" font-size="14" text-anchor="middle">Perawatan & Pemangkasan</text>
</svg>